<svg width="831" height="234" xmlns="http://www.w3.org/2000/svg">
  <g fill="none" fill-rule="evenodd">
    <path d="M170.158 127.461s-5.163 49.083 21.256 62.133M71.878 130.35s6.231 41.01-25.658 51.915" stroke="#B4B5B4" stroke-width="8.625" stroke-linecap="round" stroke-linejoin="round"/>
    <path d="M80.409 95.903S63.536 84.297 77.464 72.36c13.927-11.938 18.932-2.985 20.74-1.658m63.473 27.523s15.583-11.606 2.72-23.544c-12.862-11.938-17.485-2.984-19.155-1.658M69.487 210.072s.215-15.228 20.412-14.178c20.195 1.051 8.914 8.054 7.473 16.616-1.44 8.562 4.205 21.181-19.644 21.424-23.848.244-18.185-8.546-8.241-23.862m109.809 0s-.198-15.228-18.947-14.178c-18.745 1.051-8.274 8.054-6.937 16.616 1.336 8.562-3.903 21.181 18.235 21.424 22.137.244 16.88-8.546 7.649-23.862" fill="#B4B5B4" fill-rule="nonzero"/>
    <path d="M74.078 166.77s-2.943 53.273 5.829 52.309c8.773-.963-.232-44.278 2.445-52.309 2.678-8.029-8.274 0-8.274 0m92.473-3.568s4.382 53.292-2.798 53.616c-7.178.326-.852-39.585-1.826-54.913-.973-15.334 4.624 1.297 4.624 1.297" fill="#CBCCCB" fill-rule="nonzero"/>
    <path d="M137.484 154.747c.214 8.748.235 21.406.057 30.147.792-.156 1.591-.327 2.397-.508-.055-7.689-.464-22.686-.617-29.774-.602.049-1.216.091-1.837.135m6.113-.518c.189 6.909.325 21.398.5 27.281.018.609.048 1.226.074 1.84.883-.239 1.776-.49 2.673-.754-.421-8.562-.295-20.391-.691-28.655-.832.101-1.679.197-2.556.288m-35.168.823c-.231 7.998-.518 22.368-.8 30.865.632.088 1.276.171 1.927.246.219-8.893.438-22.173.663-31.043-.604-.021-1.199-.044-1.79-.068m17.614.182c.425 6.725.506 23.351.144 31.222.629-.047 1.264-.104 1.904-.166v-31.1c-.671.018-1.359.031-2.048.044m6.198-.195c.214 7.127.108 23.313-.2 30.782.704-.098 1.412-.204 2.127-.321v-30.554c-.633.034-1.274.065-1.927.093m-11.979.252h-.083c.001 8.72-.894 22.271-1.063 31.429.595.003 1.198-.002 1.805-.013.106-8.984.753-22.618.967-31.424-.541.005-1.077.008-1.626.008m-4.158-.029c-.681-.01-1.359-.021-2.025-.036.135 7.052-.26 23.831-.73 31.29.675.046 1.363.085 2.058.116-.272-7.629.047-23.777.697-31.37m-31.562-2.782h-.012s3.063 17.502-5.262 17.922c.201 3.303.355 5.616.355 5.616s2.22 1.614 6.395 3.591l.65-26.733c-.73-.127-1.436-.261-2.126-.396m13.955 1.927c.009 3.454-.074 9.117-.193 11.425-.233 4.487-.523 12.438-.808 18 .556.153 1.13.303 1.715.448.331-8.733.658-21.248.993-29.725-.579-.047-1.145-.099-1.707-.148m-10.11-1.241c.044.956.03 1.762.025 2.024-.072 3.626-.131 7.259-.324 10.88-.117 2.21.065 8.855-.134 14.417.649.28 1.338.565 2.061.85.391-8.282.781-19.787 1.179-27.756-.965-.132-1.903-.269-2.807-.415m5.396.749c.048 7.246-.49 20.945-1.131 28.404.609.215 1.244.424 1.893.634.351-8.616.693-20.779 1.036-28.833-.609-.065-1.21-.135-1.798-.205m9.878.886c-.227 8.58-.947 21.38-1.241 30.217.573.119 1.156.233 1.749.342.167-8.919.917-21.87 1.146-30.46-.559-.032-1.108-.065-1.654-.099m54.112-2.819h-.004c-.864.197-1.764.389-2.705.576.094 6.743.153 19.168.245 27.18 2.859-1.09 5.781-2.321 8.768-3.72v-8.098c-.148.023-.29.054-.446.067-8.577.697-5.858-16.005-5.858-16.005m-7.908 1.464c.549 6.684.852 19.303.718 27.979.769-.257 1.544-.524 2.322-.801-.273-8.08-.293-19.432-.587-27.566-.792.134-1.611.264-2.453.388" fill="#B4B5B4" fill-rule="nonzero"/>
    <path d="M164.077 167.92c7.951-1.298 3.358-18.787 3.358-18.787h-.337c-.926.376-1.93.748-3.021 1.109v17.678m-85.131 2.5c.111 0 .213-.013.322-.018-.352-5.78-.848-14.588-.921-19.37" fill="#D8127D" fill-rule="nonzero"/>
    <path d="M84.53 152.48h.012c-2.27-.448-4.331-.933-6.195-1.448.073 4.782.569 13.59.921 19.37 8.325-.42 5.262-17.922 5.262-17.922m73.239-.498h.004s-2.719 16.702 5.858 16.005c.156-.013.298-.044.446-.067v-17.678c-1.847.614-3.939 1.199-6.308 1.74" fill="#D8127D" fill-rule="nonzero"/>
    <path d="M103.661 154.801c.546.034 1.095.067 1.654.099m14.864.391h.083c.549 0 1.085-.003 1.626-.008m-7.809-.057c.666.015 1.344.026 2.025.036" fill="#777776" fill-rule="nonzero"/>
    <path d="M126.043 155.234c-1.348.026-2.736.044-4.155.049-.214 8.806-.861 22.44-.967 31.424 1.71-.031 3.465-.114 5.266-.251.362-7.871.281-24.497-.144-31.222m17.554-1.005c-1.372.139-2.794.269-4.276.383.153 7.088.562 22.085.617 29.774 1.391-.308 2.802-.655 4.233-1.036-.026-.614-.056-1.231-.074-1.84-.175-5.883-.311-20.372-.5-27.281m-11.356.81c-1.345.06-2.724.112-4.15.151v31.1c1.295-.127 2.611-.282 3.95-.469.308-7.469.414-23.655.2-30.782m-16.137.223c-.65 7.593-.969 23.741-.697 31.37 1.209.055 2.446.086 3.709.088.169-9.158 1.064-22.709 1.063-31.429-1.394 0-2.745-.011-4.075-.029m-2.025-.036c-1.318-.026-2.604-.062-3.86-.106-.225 8.87-.444 22.15-.663 31.043 1.231.143 2.495.262 3.793.353.47-7.459.865-24.238.73-31.29m35.786-1.78c-1.187.176-2.422.34-3.712.495.396 8.264.27 20.093.691 28.655 1.233-.363 2.479-.751 3.739-1.171.134-8.676-.169-21.295-.718-27.979m-44.55 1.454c-.229 8.59-.979 21.541-1.146 30.46 1.117.205 2.272.391 3.46.557.282-8.497.569-22.867.8-30.865-1.06-.046-2.099-.096-3.114-.152m32.169-.153c-1.076.072-2.182.14-3.316.199V185.5c1.112-.181 2.235-.381 3.373-.606.178-8.741.157-21.399-.057-30.147m-37.28-.192c-.335 8.477-.662 20.992-.993 29.725 1.033.261 2.101.507 3.209.738.294-8.837 1.014-21.637 1.241-30.217-1.181-.075-2.339-.155-3.457-.246m-1.707-.148c-.998-.09-1.969-.186-2.916-.287-.343 8.054-.685 20.217-1.036 28.833.943.301 1.925.596 2.951.879.285-5.562.575-13.513.808-18 .119-2.308.202-7.971.193-11.425m-4.714-.492c-.888-.106-1.747-.218-2.589-.334-.398 7.969-.788 19.474-1.179 27.756.832.329 1.71.658 2.637.982.641-7.459 1.179-21.158 1.131-28.404m58.535-.857c.294 8.134.314 19.486.587 27.566.797-.285 1.597-.58 2.404-.886-.092-8.012-.151-20.437-.245-27.18-.88.173-1.798.339-2.746.5m-64.23 13.012c.193-3.621.252-7.254.324-10.88.005-.262.019-1.068-.025-2.024-.585-.095-1.158-.191-1.719-.29l-.65 26.733c.605.285 1.248.578 1.936.878.199-5.562.017-12.207.134-14.417" fill="#D8127D" fill-rule="nonzero"/>
    <path d="M73.841 167.669s-2.943 53.271 5.829 52.307c8.771-.961-.232-44.276 2.445-52.307 2.676-8.031-8.274 0-8.274 0m92.473-3.57s4.382 53.291-2.798 53.615c-7.18.327-.853-39.582-1.827-54.913-.972-15.331 4.625 1.298 4.625 1.298" fill="#CBCCCB" fill-rule="nonzero"/>
    <path d="M72.491 149.718s-6.148 21.241 6.375 21.287c8.736.031 5.584-17.942 5.584-17.942l73.243-.495s-2.718 16.699 5.86 16.002c8.576-.697 3.804-18.852 3.804-18.852" fill="#D8127D" fill-rule="nonzero"/>
    <path d="M60.32177 138.732S59.29 155.876 120.182 155.876c57.756 0 57.728-15.777 57.728-15.777" fill="#777776" fill-rule="nonzero"/>
    <path d="M164.767 113.659s-5.84-52.483-43.311-52.483c-37.47 0-48.715 52.483-48.715 52.483-12.938 1.252-29.37 13.795-16.809 22.461 14.659 10.114 38.507 12.425 60.234 12.422 17.941-.002 42.03 1.829 61.741-8.391 30.941-16.044-13.14-26.492-13.14-26.492zm-63.383 21.635c-10.347 0-18.734-8.386-18.734-18.736 0-10.347 8.387-18.735 18.734-18.735 10.347 0 18.736 8.388 18.736 18.735 0 10.35-8.389 18.736-18.736 18.736zm40.652-3.645c-8.118 0-14.7-6.58-14.7-14.699 0-8.117 6.582-14.7 14.7-14.7 8.119 0 14.699 6.583 14.699 14.7 0 8.119-6.58 14.699-14.699 14.699z" fill="#D8127D" fill-rule="nonzero"/>
    <path stroke="#777776" stroke-width="5.175" stroke-linecap="round" stroke-linejoin="round" d="M121.965 60.578v-24.18l5.528-7.346-5.974-6.887 5.974-7.374-5.88-6.052"/>
    <path d="M122.489 6.216c0 2.166-1.634 3.92-3.651 3.92-2.015 0-3.648-1.754-3.648-3.92 0-2.164 1.633-3.92 3.648-3.92 2.017 0 3.651 1.756 3.651 3.92" fill="#D8127D" fill-rule="nonzero"/>
    <path d="M111.087 115.846c0 5.155-3.879 9.337-8.667 9.337-4.786 0-8.667-4.182-8.667-9.337 0-5.155 3.881-9.334 8.667-9.334 4.788 0 8.667 4.179 8.667 9.334m36.958 1.207c0 3.982-2.822 7.212-6.3 7.212-3.478 0-6.298-3.23-6.298-7.212 0-3.987 2.82-7.215 6.298-7.215s6.3 3.228 6.3 7.215" fill="#6F8F9D" fill-rule="nonzero"/>
    <path d="M40.499 193.238s-6.006 1.78-8.119-1.875c-2.112-3.656 1.206-5.565 6.281-6.728 5.074-1.161.398-5.58-5.166-5.474-5.564.106-9.872-6.358-3.581-9.293 6.293-2.938 17.274-6.593 24.124 9.508 5.349 12.577-13.539 13.862-13.539 13.862m155.809 7.197s5.379 2.914 8.211-.371c2.836-3.285.07-5.829-4.546-7.948-4.619-2.116.846-5.691 6.168-4.546 5.317 1.147 10.883-4.554 5.486-8.686-5.398-4.135-15.135-9.868-25.263 5.064-7.91 11.666 9.944 16.487 9.944 16.487" fill="#D8127D" fill-rule="nonzero"/>
    <path d="M576.807 177.377h26.269v-6.329l-8.187-1.406v-31.895c1.306-2.377 3.055-4.252 5.248-5.625 2.193-1.373 4.713-2.059 7.56-2.059 3.884 0 6.772 1.004 8.664 3.013 1.891 2.009 2.838 5.408 2.838 10.196v26.37l-8.187 1.406v6.329h26.269v-6.329l-8.188-1.406v-26.571c0-7.165-1.607-12.464-4.821-15.897-3.215-3.431-7.753-5.148-13.612-5.148-3.483 0-6.588.796-9.317 2.386-2.73 1.591-4.998 3.826-6.806 6.705l-.703-8.086h-17.027v6.379l8.187 1.406v38.826l-8.187 1.406v6.329zm103.493-.879c3.198-1.289 5.768-2.871 7.71-4.747l-3.867-6.429c-1.842 1.675-4.027 2.989-6.555 3.943-2.529.954-5.467 1.431-8.815 1.431-4.588 0-8.154-1.682-10.698-5.047-2.545-3.366-3.868-7.66-3.968-12.884l.15-.251h35.26v-6.178c0-7.366-1.884-13.26-5.651-17.68s-9.3-6.63-16.6-6.63c-6.295 0-11.745 2.57-16.349 7.71-4.604 5.141-6.906 11.577-6.906 19.312v2.21c0 8.037 2.235 14.575 6.705 19.614 4.471 5.04 10.489 7.559 18.057 7.559 4.487 0 8.329-.645 11.527-1.933zm-3.792-42.769c2.076 2.612 3.114 5.86 3.114 9.744v1.306h-25.063l-.101-.251c.536-4.219 1.976-7.726 4.32-10.523 2.343-2.795 5.173-4.194 8.488-4.194 4.085 0 7.166 1.306 9.242 3.918zm42.04-10.698h-20.693v6.379l4.771.703 13.712 47.264h7.987l10.346-33.1 2.11-9.091.301-.05 2.261 9.141 10.547 33.1h7.986l13.712-47.264 4.722-.703v-6.379h-20.694v6.379l6.329 1.105-6.68 27.072-1.457 7.333h-.301l-1.557-7.333-10.9-34.556h-7.936l-10.849 34.556-1.406 6.58h-.302l-1.155-6.58-7.082-27.072 6.228-1.105v-6.379zm106.834 5.073c-2.177-1.909-4.906-3.399-8.187-4.471-3.282-1.071-6.982-1.607-11.1-1.607-6.028 0-10.925 1.557-14.692 4.671-3.767 3.114-5.65 6.881-5.65 11.301 0 4.22 1.674 7.568 5.022 10.046 3.348 2.478 8.321 4.437 14.918 5.877 4.621 1.038 7.76 2.26 9.417 3.666 1.658 1.407 2.487 3.198 2.487 5.374 0 2.311-.997 4.178-2.989 5.601s-4.746 2.134-8.262 2.134c-2.043 0-4.044-.233-6.002-.703-1.959-.468-3.508-1.222-4.646-2.26l-1.859-7.283h-7.433l.05 12.406c2.578 1.808 5.508 3.19 8.79 4.144 3.281.954 6.981 1.431 11.1 1.431 6.295 0 11.393-1.489 15.294-4.47 3.9-2.98 5.852-6.881 5.852-11.703 0-4.252-1.675-7.642-5.023-10.171-3.349-2.528-8.456-4.528-15.32-6.002-4.62-.971-7.684-2.076-9.191-3.315-1.507-1.238-2.26-2.93-2.26-5.073 0-2.176.853-4.035 2.561-5.575s4.32-2.311 7.836-2.311c2.31 0 4.377.344 6.203 1.03 1.824.687 3.34 1.599 4.545 2.737l1.608 6.53h7.433l-.502-12.004z" fill="#6F8F9D" fill-rule="nonzero"/>
    <path d="M563.507 168.582c-1.029-1.132-2.366-1.698-4.012-1.698-1.646 0-2.983.566-4.012 1.698-1.029 1.131-1.543 2.417-1.543 3.857 0 1.44.514 2.726 1.543 3.858 1.029 1.131 2.366 1.697 4.012 1.697 1.646 0 2.983-.566 4.012-1.697 1.028-1.132 1.543-2.418 1.543-3.858s-.515-2.726-1.543-3.857" fill="#D8127D" fill-rule="nonzero"/>
    <path d="M248.102 109.921v13.11h-8.589v7.333h8.589v32.999c0 5.191 1.188 9 3.566 11.427 2.377 2.428 5.575 3.641 9.593 3.641 1.808 0 3.617-.193 5.425-.577 1.808-.385 3.181-.879 4.118-1.482l-1.356-6.781c-.737.168-1.649.327-2.737.478-1.089.15-2.068.226-2.938.226-1.742 0-3.14-.519-4.194-1.557-1.055-1.038-1.583-2.83-1.583-5.375v-32.999h10.297v-7.333h-10.297v-13.11h-9.894zm78.706 67.456v-6.329l-4.018-.552c-.068-.67-.109-1.339-.126-2.01-.017-.669-.025-1.356-.025-2.059v-26.168c0-5.86-1.909-10.364-5.726-13.511-3.817-3.148-8.807-4.722-14.968-4.722-4.118 0-7.936.595-11.451 1.783-3.516 1.189-6.514 2.771-8.991 4.747v10.547h7.634l1.055-5.725c1.172-1.105 2.704-1.976 4.596-2.612 1.891-.636 4.076-.955 6.555-.955 3.582 0 6.379.93 8.388 2.788 2.009 1.858 3.013 4.378 3.013 7.559v6.329h-10.196c-7.266 0-12.984 1.398-17.153 4.194-4.168 2.796-6.253 6.773-6.253 11.929 0 5.023 1.473 8.915 4.42 11.678 2.946 2.762 7.249 4.143 12.909 4.143 3.247 0 6.303-.812 9.166-2.436 2.863-1.623 5.249-3.657 7.157-6.102.067 1.172.184 2.344.352 3.516.167 1.172.402 2.495.703 3.968h12.959zm-35.561-9.117c-1.474-1.255-2.21-3.071-2.21-5.449 0-2.679 1.18-4.955 3.541-6.831 2.361-1.875 5.567-2.813 9.619-2.813h10.547v8.941c-1.172 2.21-3.114 4.102-5.826 5.675-2.712 1.575-5.71 2.361-8.991 2.361-2.98 0-5.207-.628-6.68-1.884zm57.058-3.114c-2.21-3.699-3.315-8.329-3.315-13.888v-2.109c0-5.425 1.113-10.003 3.34-13.737s5.935-5.601 11.126-5.601c2.31 0 4.386.352 6.228 1.055 1.841.703 3.348 1.625 4.52 2.763l2.16 8.538h7.886l-.452-12.054c-2.278-2.512-5.148-4.487-8.614-5.927-3.466-1.439-7.376-2.16-11.728-2.16-7.869 0-13.897 2.587-18.082 7.76-4.186 5.174-6.279 11.628-6.279 19.363v2.109c0 7.803 2.085 14.282 6.254 19.438 4.169 5.157 10.204 7.735 18.107 7.735 5.759 0 10.806-1.816 15.143-5.449 4.336-3.633 6.421-7.793 6.254-12.482l-.101-.301h-8.89c0 2.947-1.248 5.433-3.742 7.459-2.495 2.026-5.383 3.038-8.664 3.038-5.224 0-8.941-1.849-11.151-5.55zm49.575-55.225v13.11h-8.589v7.333h8.589v32.999c0 5.191 1.188 9 3.566 11.427 2.377 2.428 5.575 3.641 9.593 3.641 1.808 0 3.617-.193 5.425-.577 1.808-.385 3.181-.879 4.118-1.482l-1.356-6.781c-.737.168-1.649.327-2.737.478-1.089.15-2.068.226-2.938.226-1.742 0-3.14-.519-4.194-1.557-1.055-1.038-1.583-2.83-1.583-5.375v-32.999h10.297v-7.333h-10.297v-13.11h-9.894zm30.287 67.456h26.269v-6.329l-8.187-1.406v-46.611h-18.082v6.379l8.187 1.406v38.826l-8.187 1.406v6.329zm8.187-68.259h9.895V99.022h-9.895v10.096zm32.447-2.311v62.835l-8.187 1.406v6.329h26.269v-6.329l-8.188-1.406v-70.62h-18.081v6.379l8.187 1.406zm61.905 69.691c3.197-1.289 5.767-2.871 7.71-4.747l-3.868-6.429c-1.842 1.675-4.027 2.989-6.554 3.943-2.529.954-5.467 1.431-8.815 1.431-4.588 0-8.154-1.682-10.699-5.047-2.545-3.366-3.867-7.66-3.968-12.884l.151-.251h35.26v-6.178c0-7.366-1.884-13.26-5.651-17.68s-9.301-6.63-16.6-6.63c-6.296 0-11.745 2.57-16.349 7.71-4.605 5.141-6.906 11.577-6.906 19.312v2.21c0 8.037 2.235 14.575 6.705 19.614 4.47 5.04 10.489 7.559 18.057 7.559 4.486 0 8.329-.645 11.527-1.933zm-3.792-42.769c2.076 2.612 3.114 5.86 3.114 9.744v1.306h-25.064l-.1-.251c.535-4.219 1.975-7.726 4.319-10.523 2.344-2.795 5.174-4.194 8.489-4.194 4.085 0 7.165 1.306 9.242 3.918z" fill="#6F8F9D" fill-rule="nonzero"/>
  </g>
</svg>
