<svg width="234" height="234" xmlns="http://www.w3.org/2000/svg">
  <g fill="none" fill-rule="evenodd">
    <path d="M169.158 127.461s-5.163 49.083 21.256 62.133M70.878 130.35s6.231 41.01-25.658 51.915" stroke="#B4B5B4" stroke-width="8.625" stroke-linecap="round" stroke-linejoin="round"/>
    <path d="M79.409 95.903S62.536 84.297 76.464 72.36c13.927-11.938 18.932-2.985 20.74-1.658m63.473 27.523s15.583-11.606 2.72-23.544c-12.862-11.938-17.485-2.984-19.155-1.658M68.487 210.072s.215-15.228 20.412-14.178c20.195 1.051 8.914 8.054 7.473 16.616-1.44 8.562 4.205 21.181-19.644 21.424-23.848.244-18.185-8.546-8.241-23.862m109.809 0s-.198-15.228-18.947-14.178c-18.745 1.051-8.274 8.054-6.937 16.616 1.336 8.562-3.903 21.181 18.235 21.424 22.137.244 16.88-8.546 7.649-23.862" fill="#B4B5B4" fill-rule="nonzero"/>
    <path d="M73.078 166.77s-2.943 53.273 5.829 52.309c8.773-.963-.232-44.278 2.445-52.309 2.678-8.029-8.274 0-8.274 0m92.473-3.568s4.382 53.292-2.798 53.616c-7.178.326-.852-39.585-1.826-54.913-.973-15.334 4.624 1.297 4.624 1.297" fill="#CBCCCB" fill-rule="nonzero"/>
    <path d="M136.484 154.747c.214 8.748.235 21.406.057 30.147.792-.156 1.591-.327 2.397-.508-.055-7.689-.464-22.686-.617-29.774-.602.049-1.216.091-1.837.135m6.113-.518c.189 6.909.325 21.398.5 27.281.018.609.048 1.226.074 1.84.883-.239 1.776-.49 2.673-.754-.421-8.562-.295-20.391-.691-28.655-.832.101-1.679.197-2.556.288m-35.168.823c-.231 7.998-.518 22.368-.8 30.865.632.088 1.276.171 1.927.246.219-8.893.438-22.173.663-31.043-.604-.021-1.199-.044-1.79-.068m17.614.182c.425 6.725.506 23.351.144 31.222.629-.047 1.264-.104 1.904-.166v-31.1c-.671.018-1.359.031-2.048.044m6.198-.195c.214 7.127.108 23.313-.2 30.782.704-.098 1.412-.204 2.127-.321v-30.554c-.633.034-1.274.065-1.927.093m-11.979.252h-.083c.001 8.72-.894 22.271-1.063 31.429.595.003 1.198-.002 1.805-.013.106-8.984.753-22.618.967-31.424-.541.005-1.077.008-1.626.008m-4.158-.029c-.681-.01-1.359-.021-2.025-.036.135 7.052-.26 23.831-.73 31.29.675.046 1.363.085 2.058.116-.272-7.629.047-23.777.697-31.37m-31.562-2.782h-.012s3.063 17.502-5.262 17.922c.201 3.303.355 5.616.355 5.616s2.22 1.614 6.395 3.591l.65-26.733c-.73-.127-1.436-.261-2.126-.396m13.955 1.927c.009 3.454-.074 9.117-.193 11.425-.233 4.487-.523 12.438-.808 18 .556.153 1.13.303 1.715.448.331-8.733.658-21.248.993-29.725-.579-.047-1.145-.099-1.707-.148m-10.11-1.241c.044.956.03 1.762.025 2.024-.072 3.626-.131 7.259-.324 10.88-.117 2.21.065 8.855-.134 14.417.649.28 1.338.565 2.061.85.391-8.282.781-19.787 1.179-27.756-.965-.132-1.903-.269-2.807-.415m5.396.749c.048 7.246-.49 20.945-1.131 28.404.609.215 1.244.424 1.893.634.351-8.616.693-20.779 1.036-28.833-.609-.065-1.21-.135-1.798-.205m9.878.886c-.227 8.58-.947 21.38-1.241 30.217.573.119 1.156.233 1.749.342.167-8.919.917-21.87 1.146-30.46-.559-.032-1.108-.065-1.654-.099m54.112-2.819h-.004c-.864.197-1.764.389-2.705.576.094 6.743.153 19.168.245 27.18 2.859-1.09 5.781-2.321 8.768-3.72v-8.098c-.148.023-.29.054-.446.067-8.577.697-5.858-16.005-5.858-16.005m-7.908 1.464c.549 6.684.852 19.303.718 27.979.769-.257 1.544-.524 2.322-.801-.273-8.08-.293-19.432-.587-27.566-.792.134-1.611.264-2.453.388" fill="#B4B5B4" fill-rule="nonzero"/>
    <path d="M163.077 167.92c7.951-1.298 3.358-18.787 3.358-18.787h-.337c-.926.376-1.93.748-3.021 1.109v17.678m-85.131 2.5c.111 0 .213-.013.322-.018-.352-5.78-.848-14.588-.921-19.37" fill="#D8127D" fill-rule="nonzero"/>
    <path d="M83.53 152.48h.012c-2.27-.448-4.331-.933-6.195-1.448.073 4.782.569 13.59.921 19.37 8.325-.42 5.262-17.922 5.262-17.922m73.239-.498h.004s-2.719 16.702 5.858 16.005c.156-.013.298-.044.446-.067v-17.678c-1.847.614-3.939 1.199-6.308 1.74" fill="#D8127D" fill-rule="nonzero"/>
    <path d="M102.661 154.801c.546.034 1.095.067 1.654.099m14.864.391h.083c.549 0 1.085-.003 1.626-.008m-7.809-.057c.666.015 1.344.026 2.025.036" fill="#777776" fill-rule="nonzero"/>
    <path d="M125.043 155.234c-1.348.026-2.736.044-4.155.049-.214 8.806-.861 22.44-.967 31.424 1.71-.031 3.465-.114 5.266-.251.362-7.871.281-24.497-.144-31.222m17.554-1.005c-1.372.139-2.794.269-4.276.383.153 7.088.562 22.085.617 29.774 1.391-.308 2.802-.655 4.233-1.036-.026-.614-.056-1.231-.074-1.84-.175-5.883-.311-20.372-.5-27.281m-11.356.81c-1.345.06-2.724.112-4.15.151v31.1c1.295-.127 2.611-.282 3.95-.469.308-7.469.414-23.655.2-30.782m-16.137.223c-.65 7.593-.969 23.741-.697 31.37 1.209.055 2.446.086 3.709.088.169-9.158 1.064-22.709 1.063-31.429-1.394 0-2.745-.011-4.075-.029m-2.025-.036c-1.318-.026-2.604-.062-3.86-.106-.225 8.87-.444 22.15-.663 31.043 1.231.143 2.495.262 3.793.353.47-7.459.865-24.238.73-31.29m35.786-1.78c-1.187.176-2.422.34-3.712.495.396 8.264.27 20.093.691 28.655 1.233-.363 2.479-.751 3.739-1.171.134-8.676-.169-21.295-.718-27.979m-44.55 1.454c-.229 8.59-.979 21.541-1.146 30.46 1.117.205 2.272.391 3.46.557.282-8.497.569-22.867.8-30.865-1.06-.046-2.099-.096-3.114-.152m32.169-.153c-1.076.072-2.182.14-3.316.199V185.5c1.112-.181 2.235-.381 3.373-.606.178-8.741.157-21.399-.057-30.147m-37.28-.192c-.335 8.477-.662 20.992-.993 29.725 1.033.261 2.101.507 3.209.738.294-8.837 1.014-21.637 1.241-30.217-1.181-.075-2.339-.155-3.457-.246m-1.707-.148c-.998-.09-1.969-.186-2.916-.287-.343 8.054-.685 20.217-1.036 28.833.943.301 1.925.596 2.951.879.285-5.562.575-13.513.808-18 .119-2.308.202-7.971.193-11.425m-4.714-.492c-.888-.106-1.747-.218-2.589-.334-.398 7.969-.788 19.474-1.179 27.756.832.329 1.71.658 2.637.982.641-7.459 1.179-21.158 1.131-28.404m58.535-.857c.294 8.134.314 19.486.587 27.566.797-.285 1.597-.58 2.404-.886-.092-8.012-.151-20.437-.245-27.18-.88.173-1.798.339-2.746.5m-64.23 13.012c.193-3.621.252-7.254.324-10.88.005-.262.019-1.068-.025-2.024-.585-.095-1.158-.191-1.719-.29l-.65 26.733c.605.285 1.248.578 1.936.878.199-5.562.017-12.207.134-14.417" fill="#D8127D" fill-rule="nonzero"/>
    <path d="M72.841 167.669s-2.943 53.271 5.829 52.307c8.771-.961-.232-44.276 2.445-52.307 2.676-8.031-8.274 0-8.274 0m92.473-3.57s4.382 53.291-2.798 53.615c-7.18.327-.853-39.582-1.827-54.913-.972-15.331 4.625 1.298 4.625 1.298" fill="#CBCCCB" fill-rule="nonzero"/>
    <path d="M71.491 149.718s-6.148 21.241 6.375 21.287c8.736.031 5.584-17.942 5.584-17.942l73.243-.495s-2.718 16.699 5.86 16.002c8.576-.697 3.804-18.852 3.804-18.852" fill="#D8127D" fill-rule="nonzero"/>
    <path d="M59.32177 138.732S58.29 155.876 119.182 155.876c57.756 0 57.728-15.777 57.728-15.777" fill="#777776" fill-rule="nonzero"/>
    <path d="M163.767 113.659s-5.84-52.483-43.311-52.483c-37.47 0-48.715 52.483-48.715 52.483-12.938 1.252-29.37 13.795-16.809 22.461 14.659 10.114 38.507 12.425 60.234 12.422 17.941-.002 42.03 1.829 61.741-8.391 30.941-16.044-13.14-26.492-13.14-26.492zm-63.383 21.635c-10.347 0-18.734-8.386-18.734-18.736 0-10.347 8.387-18.735 18.734-18.735 10.347 0 18.736 8.388 18.736 18.735 0 10.35-8.389 18.736-18.736 18.736zm40.652-3.645c-8.118 0-14.7-6.58-14.7-14.699 0-8.117 6.582-14.7 14.7-14.7 8.119 0 14.699 6.583 14.699 14.7 0 8.119-6.58 14.699-14.699 14.699z" fill="#D8127D" fill-rule="nonzero"/>
    <path stroke="#777776" stroke-width="5.175" stroke-linecap="round" stroke-linejoin="round" d="M120.965 60.578v-24.18l5.528-7.346-5.974-6.887 5.974-7.374-5.88-6.052"/>
    <path d="M121.489 6.216c0 2.166-1.634 3.92-3.651 3.92-2.015 0-3.648-1.754-3.648-3.92 0-2.164 1.633-3.92 3.648-3.92 2.017 0 3.651 1.756 3.651 3.92" fill="#D8127D" fill-rule="nonzero"/>
    <path d="M110.087 115.846c0 5.155-3.879 9.337-8.667 9.337-4.786 0-8.667-4.182-8.667-9.337 0-5.155 3.881-9.334 8.667-9.334 4.788 0 8.667 4.179 8.667 9.334m36.958 1.207c0 3.982-2.822 7.212-6.3 7.212-3.478 0-6.298-3.23-6.298-7.212 0-3.987 2.82-7.215 6.298-7.215s6.3 3.228 6.3 7.215" fill="#6F8F9D" fill-rule="nonzero"/>
    <path d="M39.499 193.238s-6.006 1.78-8.119-1.875c-2.112-3.656 1.206-5.565 6.281-6.728 5.074-1.161.398-5.58-5.166-5.474-5.564.106-9.872-6.358-3.581-9.293 6.293-2.938 17.274-6.593 24.124 9.508 5.349 12.577-13.539 13.862-13.539 13.862m155.809 7.197s5.379 2.914 8.211-.371c2.836-3.285.07-5.829-4.546-7.948-4.619-2.116.846-5.691 6.168-4.546 5.317 1.147 10.883-4.554 5.486-8.686-5.398-4.135-15.135-9.868-25.263 5.064-7.91 11.666 9.944 16.487 9.944 16.487" fill="#D8127D" fill-rule="nonzero"/>
  </g>
</svg>
