<svg xmlns="http://www.w3.org/2000/svg" width="807" height="232" viewBox="0 0 807 232">
  <g fill="none" fill-rule="evenodd">
    <path stroke="#B4B5B4" stroke-linecap="round" stroke-linejoin="round" stroke-width="8.625" d="M144.158 125.461C144.158 125.461 138.995 174.544 165.414 187.594M45.878 128.35C45.878 128.35 52.109 169.36 20.22 180.265"/>
    <path fill="#B4B5B4" d="M54.409 93.903C54.409 93.903 37.536 82.297 51.464 70.36 65.391 58.422 70.396 67.375 72.204 68.702M135.677 96.225C135.677 96.225 151.26 84.619 138.397 72.681 125.535 60.743 120.912 69.697 119.242 71.023M43.487 208.072C43.487 208.072 43.702 192.844 63.899 193.894 84.094 194.945 72.813 201.948 71.372 210.51 69.932 219.072 75.577 231.691 51.728 231.934 27.88 232.178 33.543 223.388 43.487 208.072M153.296 208.072C153.296 208.072 153.098 192.844 134.349 193.894 115.604 194.945 126.075 201.948 127.412 210.51 128.748 219.072 123.509 231.691 145.647 231.934 167.784 232.178 162.527 223.388 153.296 208.072"/>
    <path fill="#CBCCCB" d="M48.078 164.77C48.078 164.77 45.135 218.043 53.907 217.079 62.68 216.116 53.675 172.801 56.352 164.77 59.03 156.741 48.078 164.77 48.078 164.77M140.551 161.202C140.551 161.202 144.933 214.494 137.753 214.818 130.575 215.144 136.901 175.233 135.927 159.905 134.954 144.571 140.551 161.202 140.551 161.202"/>
    <path fill="#B4B5B4" d="M111.484 152.747C111.698 161.495 111.719 174.153 111.541 182.894 112.333 182.738 113.132 182.567 113.938 182.386 113.883 174.697 113.474 159.7 113.321 152.612 112.719 152.661 112.105 152.703 111.484 152.747M117.597 152.229C117.786 159.138 117.922 173.627 118.097 179.51 118.115 180.119 118.145 180.736 118.171 181.35 119.054 181.111 119.947 180.86 120.844 180.596 120.423 172.034 120.549 160.205 120.153 151.941 119.321 152.042 118.474 152.138 117.597 152.229M82.429 153.052C82.198 161.05 81.911 175.42 81.629 183.917 82.261 184.005 82.905 184.088 83.556 184.163 83.775 175.27 83.994 161.99 84.219 153.12 83.615 153.099 83.02 153.076 82.429 153.052M100.043 153.234C100.468 159.959 100.549 176.585 100.187 184.456 100.816 184.409 101.451 184.352 102.091 184.29 102.091 175.267 102.091 161.972 102.091 153.19 101.42 153.208 100.732 153.221 100.043 153.234M106.241 153.039C106.455 160.166 106.349 176.352 106.041 183.821 106.745 183.723 107.453 183.617 108.168 183.5 108.168 174.71 108.168 161.661 108.168 152.946 107.535 152.98 106.894 153.011 106.241 153.039M94.262 153.291C94.232 153.291 94.208 153.291 94.179 153.291 94.18 162.011 93.285 175.562 93.116 184.72 93.711 184.723 94.314 184.718 94.921 184.707 95.027 175.723 95.674 162.089 95.888 153.283 95.347 153.288 94.811 153.291 94.262 153.291M90.104 153.262C89.423 153.252 88.745 153.241 88.079 153.226 88.214 160.278 87.819 177.057 87.349 184.516 88.024 184.562 88.712 184.601 89.407 184.632 89.135 177.003 89.454 160.855 90.104 153.262M58.542 150.48L58.53 150.48C58.53 150.48 61.593 167.982 53.268 168.402 53.469 171.705 53.623 174.018 53.623 174.018 53.623 174.018 55.843 175.632 60.018 177.609L60.668 150.876C59.938 150.749 59.232 150.615 58.542 150.48M72.497 152.407C72.506 155.861 72.423 161.524 72.304 163.832 72.071 168.319 71.781 176.27 71.496 181.832 72.052 181.985 72.626 182.135 73.211 182.28 73.542 173.547 73.869 161.032 74.204 152.555 73.625 152.508 73.059 152.456 72.497 152.407M62.387 151.166C62.431 152.122 62.417 152.928 62.412 153.19 62.34 156.816 62.281 160.449 62.088 164.07 61.971 166.28 62.153 172.925 61.954 178.487 62.603 178.767 63.292 179.052 64.015 179.337 64.406 171.055 64.796 159.55 65.194 151.581 64.229 151.449 63.291 151.312 62.387 151.166M67.783 151.915C67.831 159.161 67.293 172.86 66.652 180.319 67.261 180.534 67.896 180.743 68.545 180.953 68.896 172.337 69.238 160.174 69.581 152.12 68.972 152.055 68.371 151.985 67.783 151.915M77.661 152.801C77.434 161.381 76.714 174.181 76.42 183.018 76.993 183.137 77.576 183.251 78.169 183.36 78.336 174.441 79.086 161.49 79.315 152.9 78.756 152.868 78.207 152.835 77.661 152.801M131.773 149.982L131.769 149.982C130.905 150.179 130.005 150.371 129.064 150.558 129.158 157.301 129.217 169.726 129.309 177.738 132.168 176.648 135.09 175.417 138.077 174.018L138.077 165.92C137.929 165.943 137.787 165.974 137.631 165.987 129.054 166.684 131.773 149.982 131.773 149.982M123.865 151.446C124.414 158.13 124.717 170.749 124.583 179.425 125.352 179.168 126.127 178.901 126.905 178.624 126.632 170.544 126.612 159.192 126.318 151.058 125.526 151.192 124.707 151.322 123.865 151.446"/>
    <path fill="#D8127D" d="M138.077 165.92C146.028 164.622 141.435 147.133 141.435 147.133L141.098 147.133C140.172 147.509 139.168 147.881 138.077 148.242L138.077 165.92M52.946 168.42C53.057 168.42 53.159 168.407 53.268 168.402 52.916 162.622 52.42 153.814 52.347 149.032"/>
    <path fill="#D8127D" d="M58.53 150.48L58.542 150.48C56.272 150.032 54.211 149.547 52.347 149.032 52.42 153.814 52.916 162.622 53.268 168.402 61.593 167.982 58.53 150.48 58.53 150.48M131.769 149.982L131.773 149.982C131.773 149.982 129.054 166.684 137.631 165.987 137.787 165.974 137.929 165.943 138.077 165.92L138.077 148.242C136.23 148.856 134.138 149.441 131.769 149.982"/>
    <path fill="#777776" d="M77.661 152.801C78.207 152.835 78.756 152.868 79.315 152.9M94.179 153.291C94.208 153.291 94.232 153.291 94.262 153.291 94.811 153.291 95.347 153.288 95.888 153.283M88.079 153.226C88.745 153.241 89.423 153.252 90.104 153.262"/>
    <path fill="#D8127D" d="M100.043 153.234C98.695 153.26 97.307 153.278 95.888 153.283 95.674 162.089 95.027 175.723 94.921 184.707 96.631 184.676 98.386 184.593 100.187 184.456 100.549 176.585 100.468 159.959 100.043 153.234M117.597 152.229C116.225 152.368 114.803 152.498 113.321 152.612 113.474 159.7 113.883 174.697 113.938 182.386 115.329 182.078 116.74 181.731 118.171 181.35 118.145 180.736 118.115 180.119 118.097 179.51 117.922 173.627 117.786 159.138 117.597 152.229M106.241 153.039C104.896 153.099 103.517 153.151 102.091 153.19 102.091 161.972 102.091 175.267 102.091 184.29 103.386 184.163 104.702 184.008 106.041 183.821 106.349 176.352 106.455 160.166 106.241 153.039M90.104 153.262C89.454 160.855 89.135 177.003 89.407 184.632 90.616 184.687 91.853 184.718 93.116 184.72 93.285 175.562 94.18 162.011 94.179 153.291 92.785 153.291 91.434 153.28 90.104 153.262M88.079 153.226C86.761 153.2 85.475 153.164 84.219 153.12 83.994 161.99 83.775 175.27 83.556 184.163 84.787 184.306 86.051 184.425 87.349 184.516 87.819 177.057 88.214 160.278 88.079 153.226M123.865 151.446C122.678 151.622 121.443 151.786 120.153 151.941 120.549 160.205 120.423 172.034 120.844 180.596 122.077 180.233 123.323 179.845 124.583 179.425 124.717 170.749 124.414 158.13 123.865 151.446M79.315 152.9C79.086 161.49 78.336 174.441 78.169 183.36 79.286 183.565 80.441 183.751 81.629 183.917 81.911 175.42 82.198 161.05 82.429 153.052 81.369 153.006 80.33 152.956 79.315 152.9M111.484 152.747C110.408 152.819 109.302 152.887 108.168 152.946 108.168 161.661 108.168 174.71 108.168 183.5 109.28 183.319 110.403 183.119 111.541 182.894 111.719 174.153 111.698 161.495 111.484 152.747M74.204 152.555C73.869 161.032 73.542 173.547 73.211 182.28 74.244 182.541 75.312 182.787 76.42 183.018 76.714 174.181 77.434 161.381 77.661 152.801 76.48 152.726 75.322 152.646 74.204 152.555M72.497 152.407C71.499 152.317 70.528 152.221 69.581 152.12 69.238 160.174 68.896 172.337 68.545 180.953 69.488 181.254 70.47 181.549 71.496 181.832 71.781 176.27 72.071 168.319 72.304 163.832 72.423 161.524 72.506 155.861 72.497 152.407M67.783 151.915C66.895 151.809 66.036 151.697 65.194 151.581 64.796 159.55 64.406 171.055 64.015 179.337 64.847 179.666 65.725 179.995 66.652 180.319 67.293 172.86 67.831 159.161 67.783 151.915M126.318 151.058C126.612 159.192 126.632 170.544 126.905 178.624 127.702 178.339 128.502 178.044 129.309 177.738 129.217 169.726 129.158 157.301 129.064 150.558 128.184 150.731 127.266 150.897 126.318 151.058M62.088 164.07C62.281 160.449 62.34 156.816 62.412 153.19 62.417 152.928 62.431 152.122 62.387 151.166 61.802 151.071 61.229 150.975 60.668 150.876L60.018 177.609C60.623 177.894 61.266 178.187 61.954 178.487 62.153 172.925 61.971 166.28 62.088 164.07"/>
    <path fill="#CBCCCB" d="M47.841 165.669C47.841 165.669 44.898 218.94 53.67 217.976 62.441 217.015 53.438 173.7 56.115 165.669 58.791 157.638 47.841 165.669 47.841 165.669M140.314 162.099C140.314 162.099 144.696 215.39 137.516 215.714 130.336 216.041 136.663 176.132 135.689 160.801 134.717 145.47 140.314 162.099 140.314 162.099"/>
    <path fill="#D8127D" d="M46.491,147.718 C46.491,147.718 40.343,168.959 52.866,169.005 C61.602,169.036 58.45,151.063 58.45,151.063 L131.693,150.568 C131.693,150.568 128.975,167.267 137.553,166.57 C146.129,165.873 141.357,147.718 141.357,147.718"/>
    <path fill="#777776" d="M34.3228844,136.732 C34.3228844,136.732 33.29,153.876 94.182,153.876 C151.938,153.876 151.91,138.099 151.91,138.099"/>
    <path fill="#D8127D" d="M138.767,111.659 C138.767,111.659 132.927,59.176 95.456,59.176 C57.986,59.176 46.741,111.659 46.741,111.659 C33.803,112.911 17.371,125.454 29.932,134.12 C44.591,144.234 68.439,146.545 90.166,146.542 C108.107,146.54 132.196,148.371 151.907,138.151 C182.848,122.107 138.767,111.659 138.767,111.659 Z M75.384,133.294 C65.037,133.294 56.65,124.908 56.65,114.558 C56.65,104.211 65.037,95.823 75.384,95.823 C85.731,95.823 94.12,104.211 94.12,114.558 C94.12,124.908 85.731,133.294 75.384,133.294 Z M116.036,129.649 C107.918,129.649 101.336,123.069 101.336,114.95 C101.336,106.833 107.918,100.25 116.036,100.25 C124.155,100.25 130.735,106.833 130.735,114.95 C130.735,123.069 124.155,129.649 116.036,129.649 Z"/>
    <polyline stroke="#777776" stroke-linecap="round" stroke-linejoin="round" stroke-width="5.175" points="95.965 58.578 95.965 34.398 101.493 27.052 95.519 20.165 101.493 12.791 95.613 6.739"/>
    <path fill="#D8127D" d="M96.489,4.216 C96.489,6.382 94.855,8.136 92.838,8.136 C90.823,8.136 89.19,6.382 89.19,4.216 C89.19,2.052 90.823,0.296 92.838,0.296 C94.855,0.296 96.489,2.052 96.489,4.216"/>
    <path fill="#6F8F9D" d="M85.087 113.846C85.087 119.001 81.208 123.183 76.42 123.183 71.634 123.183 67.753 119.001 67.753 113.846 67.753 108.691 71.634 104.512 76.42 104.512 81.208 104.512 85.087 108.691 85.087 113.846M122.045 115.053C122.045 119.035 119.223 122.265 115.745 122.265 112.267 122.265 109.447 119.035 109.447 115.053 109.447 111.066 112.267 107.838 115.745 107.838 119.223 107.838 122.045 111.066 122.045 115.053"/>
    <path fill="#D8127D" d="M14.499 191.238C14.499 191.238 8.493 193.018 6.38 189.363 4.268 185.707 7.586 183.798 12.661 182.635 17.735 181.474 13.059 177.055 7.495 177.161 1.931 177.267-2.377 170.803 3.914 167.868 10.207 164.93 21.188 161.275 28.038 177.376 33.387 189.953 14.499 191.238 14.499 191.238M170.308 198.435C170.308 198.435 175.687 201.349 178.519 198.064 181.355 194.779 178.589 192.235 173.973 190.116 169.354 188 174.819 184.425 180.141 185.57 185.458 186.717 191.024 181.016 185.627 176.884 180.229 172.749 170.492 167.016 160.364 181.948 152.454 193.614 170.308 198.435 170.308 198.435"/>
    <path fill="#6F8F9D" d="M227.013 196.821L221.411 196.821 221.411 198.133 223.018 198.251 228.015 218.283 229.681 218.283 234.722 201.818 235.252 199.563 235.341 199.563 235.901 201.818 240.898 218.283 242.563 218.283 247.56 198.251 249.167 198.133 249.167 196.821 243.566 196.821 243.566 198.133 245.747 198.295 242.401 212.21 241.708 215.512 241.62 215.526 240.839 212.21 236.137 196.821 234.471 196.821 229.754 212.21 228.958 215.482 228.87 215.482 228.221 212.21 224.831 198.295 227.013 198.133 227.013 196.821zM252.15 218.283L258.71 218.283 258.71 216.986 256.307 216.794 256.307 202.334 252.15 202.334 252.15 203.646 254.553 203.837 254.553 216.794 252.15 216.986 252.15 218.283zM254.553 197.765L256.307 197.765 256.307 195.288 254.553 195.288 254.553 197.765zM265.466 202.334L263.064 202.334 263.064 203.646 265.466 203.837 265.466 216.794 263.064 216.986 263.064 218.283 269.623 218.283 269.623 216.986 267.22 216.794 267.22 207.272C267.525 206.181 268.033 205.324 268.746 204.7 269.458 204.076 270.37 203.764 271.48 203.764L272.792 203.852 273.028 202.201C272.89 202.162 272.716 202.125 272.505 202.091 272.293 202.056 272.075 202.039 271.849 202.039 270.778 202.039 269.851 202.317 269.07 202.872 268.289 203.427 267.672 204.196 267.22 205.179L267.22 204.987 266.999 202.334 265.466 202.334zM299.38 210.441C299.38 207.896 298.84 205.859 297.759 204.331 296.678 202.803 295.179 202.039 293.263 202.039 292.123 202.039 291.14 202.282 290.315 202.769 289.49 203.255 288.811 203.946 288.281 204.84L288.281 195.288 284.124 195.288 284.124 196.6 286.527 196.792 286.527 218.283 288.03 218.283 288.222 215.88C288.743 216.755 289.426 217.425 290.271 217.892 291.116 218.359 292.123 218.592 293.292 218.592 295.189 218.592 296.678 217.882 297.759 216.462 298.84 215.042 299.38 213.138 299.38 210.751L299.38 210.441zM297.597 210.751C297.597 212.677 297.208 214.21 296.432 215.349 295.656 216.489 294.501 217.059 292.968 217.059 291.799 217.059 290.824 216.787 290.042 216.241 289.261 215.696 288.674 214.961 288.281 214.038L288.281 206.83C288.644 205.877 289.202 205.095 289.954 204.486 290.706 203.877 291.701 203.572 292.939 203.572 294.472 203.572 295.631 204.209 296.417 205.481 297.203 206.754 297.597 208.407 297.597 210.441L297.597 210.751zM306.166 202.334L303.764 202.334 303.764 203.646 306.166 203.837 306.166 216.794 303.764 216.986 303.764 218.283 310.323 218.283 310.323 216.986 307.92 216.794 307.92 207.272C308.225 206.181 308.733 205.324 309.446 204.7 310.158 204.076 311.07 203.764 312.18 203.764L313.492 203.852 313.728 202.201C313.59 202.162 313.416 202.125 313.205 202.091 312.993 202.056 312.775 202.039 312.549 202.039 311.478 202.039 310.552 202.317 309.77 202.872 308.989 203.427 308.372 204.196 307.92 205.179L307.92 204.987 307.699 202.334 306.166 202.334zM317.404 218.283L323.963 218.283 323.963 216.986 321.561 216.794 321.561 202.334 317.404 202.334 317.404 203.646 319.807 203.837 319.807 216.794 317.404 216.986 317.404 218.283zM319.807 197.765L321.561 197.765 321.561 195.288 319.807 195.288 319.807 197.765zM328.111 218.283L334.685 218.283 334.685 216.986 332.283 216.794 332.283 207.154C332.627 206.073 333.189 205.206 333.97 204.552 334.752 203.899 335.761 203.572 336.999 203.572 338.257 203.572 339.228 203.951 339.911 204.707 340.594 205.464 340.935 206.756 340.935 208.584L340.935 216.794 338.532 216.986 338.532 218.283 345.106 218.283 345.106 216.986 342.704 216.794 342.704 208.569C342.704 206.329 342.252 204.68 341.348 203.624 340.444 202.568 339.127 202.039 337.397 202.039 336.208 202.039 335.179 202.307 334.309 202.843 333.44 203.378 332.749 204.137 332.238 205.12L332.076 202.334 328.111 202.334 328.111 203.646 330.514 203.837 330.514 216.794 328.111 216.986 328.111 218.283zM349.313 210.751C349.313 213.129 349.854 215.03 350.935 216.455 352.016 217.88 353.514 218.592 355.43 218.592 356.541 218.592 357.509 218.373 358.334 217.936 359.16 217.499 359.842 216.873 360.383 216.057L360.383 218.076C360.383 219.668 360 220.911 359.233 221.806 358.467 222.7 357.327 223.147 355.814 223.147 355.037 223.147 354.298 223.063 353.595 222.896 352.893 222.729 352.222 222.493 351.583 222.189L351.112 223.678C351.76 224.002 352.519 224.257 353.389 224.444 354.259 224.631 355.077 224.724 355.843 224.724 357.828 224.724 359.376 224.129 360.486 222.941 361.597 221.751 362.152 220.13 362.152 218.076L362.152 202.334 360.663 202.334 360.457 204.884C359.916 203.98 359.231 203.28 358.4 202.784 357.57 202.287 356.59 202.039 355.46 202.039 353.534 202.039 352.028 202.803 350.942 204.331 349.856 205.859 349.313 207.896 349.313 210.441L349.313 210.751zM351.082 210.441C351.082 208.417 351.478 206.766 352.269 205.488 353.06 204.211 354.231 203.572 355.784 203.572 356.983 203.572 357.951 203.865 358.688 204.449 359.425 205.034 359.99 205.793 360.383 206.727L360.383 214.126C359.97 215.04 359.383 215.757 358.622 216.278 357.86 216.799 356.904 217.059 355.755 217.059 354.202 217.059 353.035 216.487 352.254 215.342 351.473 214.197 351.082 212.667 351.082 210.751L351.082 210.441zM377.974 218.039C378.888 217.671 379.644 217.172 380.244 216.543L379.492 215.335C378.941 215.905 378.278 216.342 377.502 216.647 376.726 216.951 375.792 217.103 374.701 217.103 373.149 217.103 371.893 216.497 370.935 215.283 369.977 214.07 369.498 212.569 369.498 210.78L369.498 210.353 380.76 210.353 380.76 208.849C380.76 206.785 380.199 205.135 379.079 203.896 377.959 202.658 376.421 202.039 374.466 202.039 372.608 202.039 371.024 202.791 369.712 204.294 368.4 205.798 367.744 207.69 367.744 209.969L367.744 210.78C367.744 213.05 368.402 214.92 369.719 216.389 371.036 217.858 372.697 218.592 374.701 218.592 375.969 218.592 377.06 218.408 377.974 218.039zM377.782 204.943C378.598 205.877 379.005 207.036 379.005 208.422L379.005 208.864 369.66 208.864 369.631 208.79C369.778 207.287 370.296 206.036 371.186 205.039 372.075 204.042 373.168 203.543 374.466 203.543 375.861 203.543 376.966 204.01 377.782 204.943zM385.099 218.283L391.673 218.283 391.673 216.986 389.27 216.794 389.27 207.154C389.614 206.073 390.177 205.206 390.958 204.552 391.739 203.899 392.749 203.572 393.987 203.572 395.245 203.572 396.215 203.951 396.898 204.707 397.581 205.464 397.923 206.756 397.923 208.584L397.923 216.794 395.52 216.986 395.52 218.283 402.094 218.283 402.094 216.986 399.692 216.794 399.692 208.569C399.692 206.329 399.24 204.68 398.336 203.624 397.431 202.568 396.115 202.039 394.385 202.039 393.196 202.039 392.167 202.307 391.297 202.843 390.427 203.378 389.737 204.137 389.226 205.12L389.064 202.334 385.099 202.334 385.099 203.646 387.502 203.837 387.502 216.794 385.099 216.986 385.099 218.283zM426.456 218.283L430.436 218.283 430.436 216.986 428.034 216.794 428.034 195.288 423.862 195.288 423.862 196.6 426.265 196.792 426.265 204.737C425.724 203.872 425.046 203.206 424.231 202.739 423.415 202.273 422.452 202.039 421.342 202.039 419.416 202.039 417.915 202.803 416.839 204.331 415.763 205.859 415.225 207.896 415.225 210.441L415.225 210.751C415.225 213.129 415.763 215.03 416.839 216.455 417.915 217.88 419.406 218.592 421.312 218.592 422.442 218.592 423.425 218.366 424.26 217.914 425.095 217.462 425.778 216.819 426.309 215.983L426.456 218.283zM417.008 210.441C417.008 208.407 417.399 206.754 418.18 205.481 418.961 204.209 420.128 203.572 421.681 203.572 422.86 203.572 423.82 203.857 424.562 204.427 425.304 204.997 425.872 205.734 426.265 206.638L426.265 214.185C425.842 215.079 425.25 215.782 424.489 216.293 423.727 216.804 422.781 217.059 421.651 217.059 420.098 217.059 418.937 216.489 418.165 215.349 417.394 214.21 417.008 212.677 417.008 210.751L417.008 210.441zM434.54 218.283L441.099 218.283 441.099 216.986 438.697 216.794 438.697 202.334 434.54 202.334 434.54 203.646 436.943 203.837 436.943 216.794 434.54 216.986 434.54 218.283zM436.943 197.765L438.697 197.765 438.697 195.288 436.943 195.288 436.943 197.765zM455.875 218.039C456.788 217.671 457.545 217.172 458.145 216.543L457.393 215.335C456.842 215.905 456.179 216.342 455.403 216.647 454.626 216.951 453.693 217.103 452.602 217.103 451.049 217.103 449.794 216.497 448.836 215.283 447.878 214.07 447.399 212.569 447.399 210.78L447.399 210.353 458.66 210.353 458.66 208.849C458.66 206.785 458.1 205.135 456.98 203.896 455.86 202.658 454.322 202.039 452.366 202.039 450.509 202.039 448.925 202.791 447.613 204.294 446.301 205.798 445.645 207.69 445.645 209.969L445.645 210.78C445.645 213.05 446.303 214.92 447.62 216.389 448.937 217.858 450.598 218.592 452.602 218.592 453.87 218.592 454.961 218.408 455.875 218.039zM455.683 204.943C456.498 205.877 456.906 207.036 456.906 208.422L456.906 208.864 447.561 208.864 447.532 208.79C447.679 207.287 448.197 206.036 449.087 205.039 449.976 204.042 451.069 203.543 452.366 203.543 453.762 203.543 454.867 204.01 455.683 204.943zM489.995 196.821L485.838 196.821 485.838 198.133 488.241 198.325 488.241 215.231 488.152 215.246 475.962 196.821 471.791 196.821 471.791 198.133 474.193 198.325 474.193 216.794 471.791 216.986 471.791 218.283 478.365 218.283 478.365 216.986 475.962 216.794 475.962 199.843 476.051 199.828 488.241 218.283 489.995 218.283 489.995 198.325 492.397 198.133 492.397 196.821 489.995 196.821zM510.474 218.283L510.474 216.986 508.883 216.882C508.833 216.597 508.801 216.305 508.787 216.005 508.772 215.706 508.765 215.394 508.765 215.069L508.765 207.228C508.765 205.557 508.229 204.275 507.158 203.381 506.087 202.486 504.672 202.039 502.913 202.039 501.753 202.039 500.66 202.216 499.633 202.57 498.606 202.924 497.724 203.386 496.987 203.955L496.973 207.021 498.432 207.021 498.579 204.884C499.07 204.471 499.682 204.145 500.414 203.904 501.146 203.663 501.955 203.543 502.839 203.543 504.156 203.543 505.18 203.867 505.912 204.516 506.644 205.164 507.01 206.058 507.01 207.198L507.01 209.306 503.488 209.306C501.316 209.306 499.596 209.739 498.329 210.603 497.061 211.468 496.427 212.637 496.427 214.111 496.427 215.487 496.855 216.578 497.71 217.384 498.565 218.189 499.773 218.592 501.336 218.592 502.564 218.592 503.669 218.317 504.652 217.767 505.635 217.217 506.421 216.524 507.01 215.688 507.01 216.091 507.035 216.489 507.084 216.882 507.133 217.275 507.217 217.742 507.335 218.283L510.474 218.283zM499.073 216.241C498.478 215.716 498.181 215.025 498.181 214.17 498.181 213.158 498.66 212.32 499.618 211.657 500.576 210.994 501.856 210.662 503.458 210.662L507.01 210.662 507.01 213.861C506.578 214.794 505.876 215.556 504.903 216.145 503.93 216.735 502.805 217.03 501.527 217.03 500.486 217.03 499.667 216.767 499.073 216.241zM517.482 215.276C516.666 214.057 516.258 212.505 516.258 210.618L516.258 209.999C516.258 208.142 516.669 206.601 517.489 205.378 518.31 204.154 519.575 203.543 521.285 203.543 522.179 203.543 522.977 203.697 523.68 204.007 524.382 204.317 524.97 204.737 525.441 205.267L525.721 208.097 527.225 208.097 527.151 204.619C526.512 203.823 525.682 203.194 524.66 202.732 523.638 202.27 522.513 202.039 521.285 202.039 519.133 202.039 517.462 202.786 516.273 204.28 515.084 205.773 514.49 207.68 514.49 209.999L514.49 210.618C514.49 212.957 515.084 214.87 516.273 216.359 517.462 217.848 519.138 218.592 521.299 218.592 522.921 218.592 524.343 218.096 525.567 217.103 526.79 216.111 527.377 214.878 527.328 213.404L527.299 213.315 525.736 213.315C525.736 214.504 525.289 215.433 524.395 216.101 523.501 216.77 522.469 217.103 521.299 217.103 519.57 217.103 518.297 216.494 517.482 215.276zM534.011 196.792L534.011 216.794 531.609 216.986 531.609 218.283 538.168 218.283 538.168 216.986 535.765 216.794 535.765 207.051C536.149 205.999 536.745 205.157 537.556 204.523 538.367 203.889 539.377 203.572 540.585 203.572 541.784 203.572 542.725 203.948 543.408 204.7 544.091 205.451 544.432 206.692 544.432 208.422L544.432 216.794 542.03 216.986 542.03 218.283 548.604 218.283 548.604 216.986 546.201 216.794 546.201 208.451C546.201 206.26 545.752 204.643 544.852 203.602 543.953 202.56 542.664 202.039 540.983 202.039 539.804 202.039 538.772 202.305 537.888 202.835 537.003 203.366 536.296 204.108 535.765 205.061L535.765 195.288 531.609 195.288 531.609 196.6 534.011 196.792zM555.051 202.334L552.648 202.334 552.648 203.646 555.051 203.837 555.051 216.794 552.648 216.986 552.648 218.283 559.208 218.283 559.208 216.986 556.805 216.794 556.805 207.272C557.11 206.181 557.618 205.324 558.331 204.7 559.043 204.076 559.954 203.764 561.065 203.764L562.377 203.852 562.613 202.201C562.475 202.162 562.301 202.125 562.089 202.091 561.878 202.056 561.659 202.039 561.434 202.039 560.362 202.039 559.436 202.317 558.655 202.872 557.874 203.427 557.257 204.196 556.805 205.179L556.805 204.987 556.584 202.334 555.051 202.334zM566.289 218.283L572.848 218.283 572.848 216.986 570.446 216.794 570.446 202.334 566.289 202.334 566.289 203.646 568.691 203.837 568.691 216.794 566.289 216.986 566.289 218.283zM568.691 197.765L570.446 197.765 570.446 195.288 568.691 195.288 568.691 197.765zM580.313 215.276C579.497 214.057 579.089 212.505 579.089 210.618L579.089 209.999C579.089 208.142 579.499 206.601 580.32 205.378 581.14 204.154 582.406 203.543 584.115 203.543 585.009 203.543 585.808 203.697 586.511 204.007 587.213 204.317 587.8 204.737 588.272 205.267L588.552 208.097 590.056 208.097 589.982 204.619C589.343 203.823 588.513 203.194 587.491 202.732 586.469 202.27 585.344 202.039 584.115 202.039 581.963 202.039 580.293 202.786 579.104 204.28 577.915 205.773 577.32 207.68 577.32 209.999L577.32 210.618C577.32 212.957 577.915 214.87 579.104 216.359 580.293 217.848 581.968 218.592 584.13 218.592 585.752 218.592 587.174 218.096 588.397 217.103 589.621 216.111 590.208 214.878 590.159 213.404L590.129 213.315 588.567 213.315C588.567 214.504 588.12 215.433 587.226 216.101 586.331 216.77 585.299 217.103 584.13 217.103 582.401 217.103 581.128 216.494 580.313 215.276zM596.842 196.792L596.842 216.794 594.439 216.986 594.439 218.283 600.999 218.283 600.999 216.986 598.596 216.794 598.596 207.051C598.979 205.999 599.576 205.157 600.387 204.523 601.198 203.889 602.207 203.572 603.416 203.572 604.615 203.572 605.556 203.948 606.239 204.7 606.922 205.451 607.263 206.692 607.263 208.422L607.263 216.794 604.86 216.986 604.86 218.283 611.435 218.283 611.435 216.986 609.032 216.794 609.032 208.451C609.032 206.26 608.582 204.643 607.683 203.602 606.784 202.56 605.494 202.039 603.814 202.039 602.635 202.039 601.603 202.305 600.719 202.835 599.834 203.366 599.127 204.108 598.596 205.061L598.596 195.288 594.439 195.288 594.439 196.6 596.842 196.792zM617.867 198.251L617.867 202.334 615.125 202.334 615.125 203.779 617.867 203.779 617.867 214.17C617.867 215.703 618.179 216.823 618.803 217.531 619.427 218.238 620.299 218.592 621.419 218.592 621.842 218.592 622.264 218.558 622.687 218.489 623.109 218.42 623.468 218.322 623.763 218.194L623.498 216.882C623.144 216.941 622.832 216.983 622.562 217.008 622.291 217.032 622.014 217.045 621.729 217.045 621.1 217.045 620.596 216.826 620.218 216.389 619.84 215.951 619.651 215.212 619.651 214.17L619.651 203.779 623.159 203.779 623.159 202.334 619.651 202.334 619.651 198.251 617.867 198.251zM638.214 218.039C639.128 217.671 639.885 217.172 640.484 216.543L639.732 215.335C639.182 215.905 638.519 216.342 637.742 216.647 636.966 216.951 636.033 217.103 634.942 217.103 633.389 217.103 632.134 216.497 631.176 215.283 630.218 214.07 629.739 212.569 629.739 210.78L629.739 210.353 641 210.353 641 208.849C641 206.785 640.44 205.135 639.32 203.896 638.199 202.658 636.661 202.039 634.706 202.039 632.849 202.039 631.264 202.791 629.952 204.294 628.641 205.798 627.985 207.69 627.985 209.969L627.985 210.78C627.985 213.05 628.643 214.92 629.96 216.389 631.276 217.858 632.937 218.592 634.942 218.592 636.209 218.592 637.3 218.408 638.214 218.039zM638.023 204.943C638.838 205.877 639.246 207.036 639.246 208.422L639.246 208.864 629.901 208.864 629.871 208.79C630.019 207.287 630.537 206.036 631.426 205.039 632.316 204.042 633.409 203.543 634.706 203.543 636.101 203.543 637.207 204.01 638.023 204.943zM645.339 218.283L651.913 218.283 651.913 216.986 649.511 216.794 649.511 207.154C649.855 206.073 650.417 205.206 651.199 204.552 651.98 203.899 652.99 203.572 654.228 203.572 655.485 203.572 656.456 203.951 657.139 204.707 657.822 205.464 658.163 206.756 658.163 208.584L658.163 216.794 655.761 216.986 655.761 218.283 662.335 218.283 662.335 216.986 659.932 216.794 659.932 208.569C659.932 206.329 659.48 204.68 658.576 203.624 657.672 202.568 656.355 202.039 654.626 202.039 653.437 202.039 652.407 202.307 651.538 202.843 650.668 203.378 649.977 204.137 649.467 205.12L649.305 202.334 645.339 202.334 645.339 203.646 647.742 203.837 647.742 216.794 645.339 216.986 645.339 218.283zM675.347 218.283L681.906 218.283 681.906 216.986 679.504 216.794 679.504 202.334 675.347 202.334 675.347 203.646 677.75 203.837 677.75 216.794 675.347 216.986 675.347 218.283zM677.75 197.765L679.504 197.765 679.504 195.288 677.75 195.288 677.75 197.765zM686.054 218.283L692.628 218.283 692.628 216.986 690.226 216.794 690.226 207.154C690.57 206.073 691.132 205.206 691.913 204.552 692.695 203.899 693.704 203.572 694.942 203.572 696.2 203.572 697.17 203.951 697.854 204.707 698.536 205.464 698.878 206.756 698.878 208.584L698.878 216.794 696.475 216.986 696.475 218.283 703.049 218.283 703.049 216.986 700.647 216.794 700.647 208.569C700.647 206.329 700.195 204.68 699.291 203.624 698.387 202.568 697.07 202.039 695.34 202.039 694.151 202.039 693.122 202.307 692.252 202.843 691.383 203.378 690.692 204.137 690.181 205.12L690.019 202.334 686.054 202.334 686.054 203.646 688.457 203.837 688.457 216.794 686.054 216.986 686.054 218.283zM718.827 204.029C718.218 203.42 717.429 202.936 716.461 202.577 715.493 202.219 714.425 202.039 713.255 202.039 711.565 202.039 710.204 202.459 709.172 203.299 708.141 204.14 707.625 205.169 707.625 206.387 707.625 207.616 708.084 208.572 709.003 209.254 709.922 209.938 711.329 210.485 713.226 210.898 714.828 211.252 715.936 211.709 716.55 212.269 717.164 212.829 717.471 213.482 717.471 214.229 717.471 215.025 717.103 215.703 716.366 216.263 715.629 216.823 714.621 217.103 713.344 217.103 712.558 217.103 711.804 216.998 711.081 216.787 710.359 216.575 709.762 216.234 709.29 215.762L709.04 213.492 707.61 213.492 707.61 216.705C708.318 217.305 709.155 217.769 710.123 218.098 711.091 218.428 712.165 218.592 713.344 218.592 715.113 218.592 716.535 218.182 717.611 217.361 718.687 216.541 719.225 215.467 719.225 214.141 719.225 212.883 718.753 211.888 717.81 211.156 716.867 210.424 715.447 209.847 713.55 209.424 711.889 209.06 710.781 208.638 710.226 208.156 709.671 207.675 709.394 207.066 709.394 206.329 709.394 205.582 709.715 204.931 710.359 204.375 711.003 203.82 711.968 203.543 713.255 203.543 714.13 203.543 714.904 203.67 715.577 203.926 716.25 204.182 716.808 204.54 717.25 205.002L717.456 207.257 718.901 207.257 718.827 204.029zM747.567 199.519C746.86 198.595 745.894 197.863 744.671 197.322 743.447 196.782 742.054 196.512 740.492 196.512 738.32 196.512 736.546 197.028 735.171 198.059 733.795 199.091 733.107 200.428 733.107 202.069 733.107 203.67 733.712 204.943 734.92 205.886 736.129 206.83 737.907 207.596 740.256 208.186 742.428 208.756 743.951 209.412 744.826 210.154 745.7 210.896 746.137 211.851 746.137 213.02 746.137 214.249 745.614 215.237 744.568 215.983 743.521 216.73 742.152 217.103 740.462 217.103 739.273 217.103 738.173 216.912 737.161 216.529 736.148 216.145 735.318 215.585 734.67 214.848L734.419 211.709 732.975 211.709 732.975 215.467C733.81 216.47 734.883 217.241 736.195 217.782 737.507 218.322 738.93 218.592 740.462 218.592 742.634 218.592 744.418 218.086 745.813 217.074 747.208 216.062 747.906 214.701 747.906 212.991 747.906 211.35 747.304 210.028 746.101 209.026 744.897 208.024 743.14 207.228 740.831 206.638 738.64 206.088 737.099 205.451 736.21 204.729 735.32 204.007 734.876 203.106 734.876 202.024 734.876 200.885 735.37 199.931 736.357 199.165 737.345 198.398 738.723 198.015 740.492 198.015 741.72 198.015 742.791 198.204 743.705 198.583 744.619 198.961 745.341 199.484 745.872 200.152L746.123 203.189 747.567 203.189 747.567 199.519zM754.221 203.837L754.221 222.911 751.818 223.103 751.818 224.415 758.377 224.415 758.377 223.103 755.975 222.911 755.975 216.131C756.505 216.917 757.191 217.524 758.031 217.951 758.871 218.378 759.851 218.592 760.972 218.592 762.868 218.592 764.357 217.882 765.438 216.462 766.519 215.042 767.059 213.138 767.059 210.751L767.059 210.441C767.059 207.896 766.519 205.859 765.438 204.331 764.357 202.803 762.858 202.039 760.942 202.039 759.812 202.039 758.827 202.28 757.987 202.761 757.147 203.243 756.456 203.926 755.916 204.81L755.695 202.334 751.818 202.334 751.818 203.646 754.221 203.837zM765.291 210.751C765.291 212.667 764.89 214.205 764.089 215.364 763.288 216.524 762.116 217.103 760.574 217.103 759.434 217.103 758.483 216.853 757.721 216.352 756.96 215.851 756.378 215.163 755.975 214.288L755.975 206.623C756.348 205.719 756.906 204.985 757.648 204.42 758.39 203.855 759.355 203.572 760.544 203.572 762.097 203.572 763.276 204.211 764.082 205.488 764.887 206.766 765.291 208.417 765.291 210.441L765.291 210.751zM771.325 218.283L777.884 218.283 777.884 216.986 775.482 216.794 775.482 202.334 771.325 202.334 771.325 203.646 773.728 203.837 773.728 216.794 771.325 216.986 771.325 218.283zM773.728 197.765L775.482 197.765 775.482 195.288 773.728 195.288 773.728 197.765zM792.66 218.039C793.574 217.671 794.33 217.172 794.93 216.543L794.178 215.335C793.628 215.905 792.964 216.342 792.188 216.647 791.412 216.951 790.478 217.103 789.387 217.103 787.835 217.103 786.579 216.497 785.621 215.283 784.663 214.07 784.184 212.569 784.184 210.78L784.184 210.353 795.446 210.353 795.446 208.849C795.446 206.785 794.885 205.135 793.765 203.896 792.645 202.658 791.107 202.039 789.152 202.039 787.294 202.039 785.71 202.791 784.398 204.294 783.086 205.798 782.43 207.69 782.43 209.969L782.43 210.78C782.43 213.05 783.088 214.92 784.405 216.389 785.722 217.858 787.383 218.592 789.387 218.592 790.655 218.592 791.746 218.408 792.66 218.039zM792.468 204.943C793.284 205.877 793.692 207.036 793.692 208.422L793.692 208.864 784.346 208.864 784.317 208.79C784.464 207.287 784.982 206.036 785.872 205.039 786.761 204.042 787.854 203.543 789.152 203.543 790.547 203.543 791.652 204.01 792.468 204.943zM802.158 196.792L802.158 216.794 799.756 216.986 799.756 218.283 806.315 218.283 806.315 216.986 803.912 216.794 803.912 195.288 799.756 195.288 799.756 196.6 802.158 196.792zM550.807 175.377L577.076 175.377 577.076 169.048 568.889 167.642 568.889 135.747C570.195 133.37 571.944 131.495 574.137 130.122 576.33 128.749 578.85 128.063 581.697 128.063 585.581 128.063 588.469 129.067 590.361 131.076 592.252 133.085 593.199 136.484 593.199 141.272L593.199 167.642 585.012 169.048 585.012 175.377 611.281 175.377 611.281 169.048 603.093 167.642 603.093 141.071C603.093 133.906 601.486 128.607 598.272 125.174 595.057 121.743 590.519 120.026 584.66 120.026 581.177 120.026 578.072 120.822 575.343 122.412 572.613 124.003 570.345 126.238 568.537 129.117L567.834 121.031 550.807 121.031 550.807 127.41 558.994 128.816 558.994 167.642 550.807 169.048 550.807 175.377zM654.3 174.498C657.498 173.209 660.068 171.627 662.01 169.751L658.143 163.322C656.301 164.997 654.116 166.311 651.588 167.265 649.059 168.219 646.121 168.696 642.773 168.696 638.185 168.696 634.619 167.014 632.075 163.649 629.53 160.283 628.207 155.989 628.107 150.765L628.257 150.514 663.517 150.514 663.517 144.336C663.517 136.97 661.633 131.076 657.866 126.656 654.099 122.236 648.566 120.026 641.266 120.026 634.971 120.026 629.521 122.596 624.917 127.736 620.313 132.877 618.011 139.313 618.011 147.048L618.011 149.258C618.011 157.295 620.246 163.833 624.716 168.872 629.187 173.912 635.205 176.431 642.773 176.431 647.26 176.431 651.102 175.786 654.3 174.498zM650.508 131.729C652.584 134.341 653.622 137.589 653.622 141.473L653.622 142.779 628.559 142.779 628.458 142.528C628.994 138.309 630.434 134.802 632.778 132.005 635.121 129.21 637.951 127.811 641.266 127.811 645.351 127.811 648.432 129.117 650.508 131.729zM692.548 121.031L671.855 121.031 671.855 127.41 676.626 128.113 690.338 175.377 698.325 175.377 708.671 142.277 710.781 133.186 711.082 133.136 713.343 142.277 723.89 175.377 731.876 175.377 745.588 128.113 750.31 127.41 750.31 121.031 729.616 121.031 729.616 127.41 735.945 128.515 729.265 155.587 727.808 162.92 727.507 162.92 725.95 155.587 715.05 121.031 707.114 121.031 696.265 155.587 694.859 162.167 694.557 162.167 693.402 155.587 686.32 128.515 692.548 127.41 692.548 121.031zM799.382 126.104C797.205 124.195 794.476 122.705 791.195 121.633 787.913 120.562 784.213 120.026 780.095 120.026 774.067 120.026 769.17 121.583 765.403 124.697 761.636 127.811 759.753 131.578 759.753 135.998 759.753 140.218 761.427 143.566 764.775 146.044 768.123 148.522 773.096 150.481 779.693 151.921 784.314 152.959 787.453 154.181 789.11 155.587 790.768 156.994 791.597 158.785 791.597 160.961 791.597 163.272 790.6 165.139 788.608 166.562 786.616 167.985 783.862 168.696 780.346 168.696 778.303 168.696 776.302 168.463 774.344 167.993 772.385 167.525 770.836 166.771 769.698 165.733L767.839 158.45 760.406 158.45 760.456 170.856C763.034 172.664 765.964 174.046 769.246 175 772.527 175.954 776.227 176.431 780.346 176.431 786.641 176.431 791.739 174.942 795.64 171.961 799.54 168.981 801.492 165.08 801.492 160.258 801.492 156.006 799.817 152.616 796.469 150.087 793.12 147.559 788.013 145.559 781.149 144.085 776.529 143.114 773.465 142.009 771.958 140.77 770.451 139.532 769.698 137.84 769.698 135.697 769.698 133.521 770.551 131.662 772.259 130.122 773.967 128.582 776.579 127.811 780.095 127.811 782.405 127.811 784.472 128.155 786.298 128.841 788.122 129.528 789.638 130.44 790.843 131.578L792.451 138.108 799.884 138.108 799.382 126.104z"/>
    <path fill="#D8127D" d="M537.507,166.582 C536.478,165.45 535.141,164.884 533.495,164.884 C531.849,164.884 530.512,165.45 529.483,166.582 C528.454,167.713 527.94,168.999 527.94,170.439 C527.94,171.879 528.454,173.165 529.483,174.297 C530.512,175.428 531.849,175.994 533.495,175.994 C535.141,175.994 536.478,175.428 537.507,174.297 C538.535,173.165 539.05,171.879 539.05,170.439 C539.05,168.999 538.535,167.713 537.507,166.582"/>
    <path fill="#6F8F9D" d="M222.102,107.921 L222.102,121.031 L213.513,121.031 L213.513,128.364 L222.102,128.364 L222.102,161.363 C222.102,166.554 223.29,170.363 225.668,172.79 C228.045,175.218 231.243,176.431 235.261,176.431 C237.069,176.431 238.878,176.238 240.686,175.854 C242.494,175.469 243.867,174.975 244.804,174.372 L243.448,167.591 C242.711,167.759 241.799,167.918 240.711,168.069 C239.622,168.219 238.643,168.295 237.773,168.295 C236.031,168.295 234.633,167.776 233.579,166.738 C232.524,165.7 231.996,163.908 231.996,161.363 L231.996,128.364 L242.293,128.364 L242.293,121.031 L231.996,121.031 L231.996,107.921 L222.102,107.921 Z M300.808,175.377 L300.808,169.048 L296.79,168.496 C296.722,167.826 296.681,167.157 296.664,166.486 C296.647,165.817 296.639,165.13 296.639,164.427 L296.639,138.259 C296.639,132.399 294.73,127.895 290.913,124.748 C287.096,121.6 282.106,120.026 275.945,120.026 C271.827,120.026 268.009,120.621 264.494,121.809 C260.978,122.998 257.98,124.58 255.503,126.556 L255.503,137.103 L263.137,137.103 L264.192,131.378 C265.364,130.273 266.896,129.402 268.788,128.766 C270.679,128.13 272.864,127.811 275.343,127.811 C278.925,127.811 281.722,128.741 283.731,130.599 C285.74,132.457 286.744,134.977 286.744,138.158 L286.744,144.487 L276.548,144.487 C269.282,144.487 263.564,145.885 259.395,148.681 C255.227,151.477 253.142,155.454 253.142,160.61 C253.142,165.633 254.615,169.525 257.562,172.288 C260.508,175.05 264.811,176.431 270.471,176.431 C273.718,176.431 276.774,175.619 279.637,173.995 C282.5,172.372 284.886,170.338 286.794,167.893 C286.861,169.065 286.978,170.237 287.146,171.409 C287.313,172.581 287.548,173.904 287.849,175.377 L300.808,175.377 Z M265.247,166.26 C263.773,165.005 263.037,163.189 263.037,160.811 C263.037,158.132 264.217,155.856 266.578,153.98 C268.939,152.105 272.145,151.167 276.197,151.167 L286.744,151.167 L286.744,160.108 C285.572,162.318 283.63,164.21 280.918,165.783 C278.206,167.358 275.208,168.144 271.927,168.144 C268.947,168.144 266.72,167.516 265.247,166.26 Z M322.305,163.146 C320.095,159.447 318.99,154.817 318.99,149.258 L318.99,147.149 C318.99,141.724 320.103,137.146 322.33,133.412 C324.557,129.678 328.265,127.811 333.456,127.811 C335.766,127.811 337.842,128.163 339.684,128.866 C341.525,129.569 343.032,130.491 344.204,131.629 L346.364,140.167 L354.25,140.167 L353.798,128.113 C351.52,125.601 348.65,123.626 345.184,122.186 C341.718,120.747 337.808,120.026 333.456,120.026 C325.587,120.026 319.559,122.613 315.374,127.786 C311.188,132.96 309.095,139.414 309.095,147.149 L309.095,149.258 C309.095,157.061 311.18,163.54 315.349,168.696 C319.518,173.853 325.553,176.431 333.456,176.431 C339.215,176.431 344.262,174.615 348.599,170.982 C352.935,167.349 355.02,163.189 354.853,158.5 L354.752,158.199 L345.862,158.199 C345.862,161.146 344.614,163.632 342.12,165.658 C339.625,167.684 336.737,168.696 333.456,168.696 C328.232,168.696 324.515,166.847 322.305,163.146 Z M371.88,107.921 L371.88,121.031 L363.291,121.031 L363.291,128.364 L371.88,128.364 L371.88,161.363 C371.88,166.554 373.068,170.363 375.446,172.79 C377.823,175.218 381.021,176.431 385.039,176.431 C386.847,176.431 388.656,176.238 390.464,175.854 C392.272,175.469 393.645,174.975 394.582,174.372 L393.226,167.591 C392.489,167.759 391.577,167.918 390.489,168.069 C389.4,168.219 388.421,168.295 387.551,168.295 C385.809,168.295 384.411,167.776 383.357,166.738 C382.302,165.7 381.774,163.908 381.774,161.363 L381.774,128.364 L392.071,128.364 L392.071,121.031 L381.774,121.031 L381.774,107.921 L371.88,107.921 Z M402.167,175.377 L428.436,175.377 L428.436,169.048 L420.249,167.642 L420.249,121.031 L402.167,121.031 L402.167,127.41 L410.354,128.816 L410.354,167.642 L402.167,169.048 L402.167,175.377 Z M410.354,107.118 L420.249,107.118 L420.249,97.022 L410.354,97.022 L410.354,107.118 Z M442.801,104.807 L442.801,167.642 L434.614,169.048 L434.614,175.377 L460.883,175.377 L460.883,169.048 L452.695,167.642 L452.695,97.022 L434.614,97.022 L434.614,103.401 L442.801,104.807 Z M504.706,174.498 C507.903,173.209 510.473,171.627 512.416,169.751 L508.548,163.322 C506.706,164.997 504.521,166.311 501.994,167.265 C499.465,168.219 496.527,168.696 493.179,168.696 C488.591,168.696 485.025,167.014 482.48,163.649 C479.935,160.283 478.613,155.989 478.512,150.765 L478.663,150.514 L513.923,150.514 L513.923,144.336 C513.923,136.97 512.039,131.076 508.272,126.656 C504.505,122.236 498.971,120.026 491.672,120.026 C485.376,120.026 479.927,122.596 475.323,127.736 C470.718,132.877 468.417,139.313 468.417,147.048 L468.417,149.258 C468.417,157.295 470.652,163.833 475.122,168.872 C479.592,173.912 485.611,176.431 493.179,176.431 C497.665,176.431 501.508,175.786 504.706,174.498 Z M500.914,131.729 C502.99,134.341 504.028,137.589 504.028,141.473 L504.028,142.779 L478.964,142.779 L478.864,142.528 C479.399,138.309 480.839,134.802 483.183,132.005 C485.527,129.21 488.357,127.811 491.672,127.811 C495.757,127.811 498.837,129.117 500.914,131.729 Z"/>
  </g>
</svg>
